<svg width="575" height="79" viewBox="0 0 575 79" fill="none" xmlns="http://www.w3.org/2000/svg">
<g clip-path="url(#clip0_6_82)">
<path d="M528.931 36.2329C523.575 36.2329 519.233 40.5751 519.233 45.9315C519.233 51.2879 523.575 55.6301 528.931 55.6301C534.288 55.6301 538.63 51.2879 538.63 45.9315C538.63 40.5751 534.288 36.2329 528.931 36.2329Z" stroke="#E7BC00" stroke-width="7"/>
</g>
<g clip-path="url(#clip1_6_82)">
<path d="M554.555 57.9372L562.069 50.4236C564.573 52.927 567.078 55.4329 569.583 57.9372C572.48 60.8347 576.971 56.3418 574.076 53.4435C571.571 50.9408 569.065 48.4346 566.563 45.9303C569.066 43.4249 571.571 40.9205 574.076 38.4171C576.971 35.5204 572.48 31.0287 569.583 33.9234C567.078 36.4285 564.573 38.9339 562.069 41.4374L554.556 33.9234C551.658 31.0267 547.166 35.52 550.062 38.4171C552.567 40.9222 555.071 43.4264 557.577 45.9311C555.072 48.4362 552.567 50.9412 550.062 53.4459C547.165 56.3418 551.658 60.8347 554.556 57.9356" fill="#009DDC"/>
</g>
<path d="M106.32 54.24V19.8H111.92V55.528L105.424 59.28H94.616L88.12 55.528V46.4H93.72V54.24H106.32ZM143.569 54.128V59H127.945L121.449 55.248V34.472L127.945 30.72H137.073L143.569 34.472V46.904H126.881V54.128H143.569ZM126.881 35.592V42.032H138.137V35.592H126.881ZM152.511 55.528V31H157.943V54.408H170.879V31H176.311V59.28H172.223L170.879 56.984L166.903 59.28H159.007L152.511 55.528ZM206.312 30.72H214.768L218.744 33.016V18.12H224.176V59.28H220.088L218.744 56.984L214.768 59.28H206.312L199.816 55.528V34.472L206.312 30.72ZM218.744 54.408V35.592H205.248V54.408H218.744ZM233.121 55.528V31H238.553V54.408H251.489V31H256.921V59.28H252.833L251.489 56.984L247.513 59.28H239.617L233.121 55.528ZM315.145 59V27.08H315.033L303.497 59H297.897L286.417 27.08H286.305V59H280.985V19.8H288.881L300.641 52.504H300.753L312.569 19.8H320.465V59H315.145ZM353.772 55.528L347.276 59.28H336.468L329.972 55.528V34.472L336.468 30.72H347.276L353.772 34.472V55.528ZM335.404 35.592V54.408H348.34V35.592H335.404ZM378.354 35.872H368.162V59H362.73V31H366.818L368.162 33.296L372.138 31H378.354V35.872ZM402.36 59.28H393.904L389.928 56.984V70.2H384.496V30.72H388.584L389.928 33.016L393.904 30.72H402.36L408.856 34.472V55.528L402.36 59.28ZM389.928 35.592V54.408H403.424V35.592H389.928ZM423.232 31V59H417.8V31H423.232ZM417.52 24.112V18.12H423.512V24.112H417.52ZM455.983 55.528L449.487 59.28H438.679L432.183 55.528V34.472L438.679 30.72H449.487L455.983 34.472V55.528ZM437.615 35.592V54.408H450.551V35.592H437.615ZM488.741 34.472V59H483.309V35.592H470.373V59H464.941V30.72H469.029L470.373 33.016L474.349 30.72H482.245L488.741 34.472Z" fill="white"/>
<g clip-path="url(#clip2_6_82)">
<path d="M49 55C53.9706 55 58 50.9706 58 46C58 41.0294 53.9706 37 49 37C44.0294 37 40 41.0294 40 46C40 50.9706 44.0294 55 49 55Z" stroke="#E7BC00" stroke-width="7"/>
</g>
<g clip-path="url(#clip3_6_82)">
<path d="M23.4447 33.9258L15.9315 41.4394C13.4272 38.936 10.9222 36.4301 8.41748 33.9258C5.52002 31.0283 1.02874 35.5212 3.92378 38.4195C6.42886 40.9222 8.93474 43.4284 11.437 45.9327C8.9336 48.4381 6.4292 50.9425 3.92378 53.4459C1.02874 56.3426 5.52042 60.8343 8.41748 57.9396C10.9218 55.4345 13.4268 52.9291 15.9311 50.4256L23.4443 57.9396C26.3418 60.8363 30.8343 56.343 27.938 53.4459C25.4329 50.9408 22.9287 48.4366 20.4228 45.9319C22.9283 43.4268 25.4325 40.9218 27.938 38.4171C30.8347 35.5212 26.3422 31.0283 23.4443 33.9274" fill="#009DDC"/>
</g>
<defs>
<clipPath id="clip0_6_82">
<rect width="25.863" height="25.863" fill="white" transform="translate(541.863 58.863) rotate(-180)"/>
</clipPath>
<clipPath id="clip1_6_82">
<rect width="25.863" height="25.863" fill="white" transform="translate(575 58.863) rotate(-180)"/>
</clipPath>
<clipPath id="clip2_6_82">
<rect width="25.863" height="25.863" fill="white" transform="translate(36.137 33)"/>
</clipPath>
<clipPath id="clip3_6_82">
<rect width="25.863" height="25.863" fill="white" transform="translate(3 33)"/>
</clipPath>
</defs>
</svg>
